<?xml version="1.0" encoding="UTF-8" standalone="no"?>
<svg
   xml:space="preserve"
   width="261"
   height="225"
   data-id="lg_GLLUYPPDmhp9qSlz7P"
   data-version="1"
   viewBox="0 0 260.99999 225"
   version="1.1"
   id="svg1845"
   sodipodi:docname="book-club-logo-150.svg"
   inkscape:version="1.2.2 (b0a8486541, 2022-12-01)"
   xmlns:inkscape="http://www.inkscape.org/namespaces/inkscape"
   xmlns:sodipodi="http://sodipodi.sourceforge.net/DTD/sodipodi-0.dtd"
   xmlns="http://www.w3.org/2000/svg"
   xmlns:svg="http://www.w3.org/2000/svg"><defs
     id="defs1849" /><sodipodi:namedview
     id="namedview1847"
     pagecolor="#ffffff"
     bordercolor="#000000"
     borderopacity="0.25"
     inkscape:showpageshadow="2"
     inkscape:pageopacity="0.0"
     inkscape:pagecheckerboard="0"
     inkscape:deskcolor="#d1d1d1"
     showgrid="false"
     inkscape:zoom="0.70710678"
     inkscape:cx="117.37973"
     inkscape:cy="303.34881"
     inkscape:window-width="1920"
     inkscape:window-height="1011"
     inkscape:window-x="0"
     inkscape:window-y="0"
     inkscape:window-maximized="1"
     inkscape:current-layer="g15583" /><g
     data-padding="20"
     id="g1843"><g
       transform="matrix(0.96416,0,0,0.96416,10,4.498)"
       id="g1839"><g
         id="g9120"
         transform="translate(-27.731397,2.4171318e-4)"><g
           id="g9134"
           transform="matrix(0.25187144,0,0,0.25187144,-125.44065,-38.106079)"><g
             id="g11872"
             transform="matrix(1.7437417,0,0,1.7437683,-421.67027,-98.749846)"><g
               id="g15583"
               transform="matrix(0.89433594,0,0,0.89433594,137.95613,647.07637)"><g
                 id="g15862"
                 transform="matrix(0.30026843,0,0,0.3002684,432.23978,-345.06305)"><g
                   id="g6903"
                   transform="matrix(6.8080166,0,0,6.8080166,-2675.6664,-1217.5375)"><path
                     fill="#39cccc"
                     d="m 652.26249,158.15291 q -0.39,0 -0.78,0.06 l -82.125,15.57 -48.18,-11.055 v -16.605 l 48.195,11.04 82.89,-15.765 1.65,-0.465 a 3.45,3.45 0 0 0 2.13,-3.03 c 0.045,-1.635 -1.155,-3.075 -2.895,-3.465 l -51.945,-11.925 q -0.825,-0.195 -1.68,-0.045 l -82.905,15.735 -0.345,0.105 -0.255,0.06 -0.555,0.24 -0.075,0.045 q -0.3,0.15 -0.555,0.375 l -0.15,0.15 -0.33,0.3 -0.15,0.225 a 3,3 0 0 0 -0.495,0.96 l -0.045,0.135 -0.03,0.105 -0.06,0.405 -0.03,0.27 v 23.88 c 0,1.62 1.2,3 2.895,3.405 l 51.945,11.91 q 0.825,0.195 1.68,0.045 l 82.905,-15.735 c 2.07,-0.375 3.405,-2.22 3,-4.125 a 3.6,3.6 0 0 0 -2.055,-2.43 c 0,0 -0.855,-0.45 -1.65,-0.375"
                     id="path1833"
                     style="fill:#fe5b33;fill-opacity:1" /><path
                     fill="#39cccc"
                     d="m 653.91249,179.21291 a 3.45,3.45 0 0 0 2.13,-3 3.6,3.6 0 0 0 -2.895,-3.48 l -83.52,15.255 a 4.5,4.5 0 0 0 -1.665,-0.045 l -51.345,-11.43 -0.345,0.105 -0.255,0.06 -0.555,0.24 -0.075,0.045 q -0.3,0.15 -0.555,0.375 -0.09,0.06 -0.15,0.135 -0.165,0.15 -0.315,0.33 l -0.15,0.195 a 3,3 0 0 0 -0.51,0.975 l -0.045,0.135 -0.03,0.09 -0.06,0.42 -0.03,0.27 v 23.88 c 0,1.605 1.2,3 2.895,3.405 l 17.505,3.99 0.03,-7.26 -12.795,-2.895 v -16.575 l 48.3,10.65 82.785,-15.39 c 0,0 1.2,-0.225 1.65,-0.465 m -1.65,17.235 q -0.39,0 -0.78,0.06 l -82.02,15.255 -9.765,-1.905 v 7.2 l 8.67,1.995 q 0.825,0.18 1.68,0.03 l 82.905,-15.72 c 2.07,-0.375 3.405,-2.22 3,-4.125 a 3.6,3.6 0 0 0 -2.055,-2.43 c 0,0 -0.855,-0.45 -1.65,-0.39"
                     id="path1835"
                     style="fill:#ffffff;fill-opacity:1" /><path
                     fill="#39cccc"
                     d="m 538.83249,234.78791 7.665,-4.38 7.665,8.58 v -36.375 l -15.33,-3.48 z"
                     id="path1837"
                     style="fill:#ffffff;fill-opacity:1" /></g><g
                   id="g15733"
                   transform="translate(-21.693376,-114.98395)"><rect
                     width="1115.2485"
                     height="236.14742"
                     x="929.02295"
                     y="132.76964"
                     fill="none"
                     rx="0"
                     ry="0"
                     id="rect1829"
                     style="stroke-width:1.62" /><path
                     d="m 1562.9488,816.64262 -21.0485,8.34936 c -3.3705,-10.5544 -8.9914,-18.66837 -16.8625,-24.34195 -7.8862,-5.67359 -17.3504,-8.51037 -28.3924,-8.51037 -5.9505,0 -11.2586,0.93775 -15.9248,2.81325 -4.6512,1.8755 -8.7307,4.44584 -12.2388,7.71102 -3.5081,3.26518 -6.4899,7.0623 -8.9453,11.3914 -2.4404,4.3178 -4.4309,8.92464 -5.9711,13.82051 -1.5442,4.91096 -2.6503,9.98196 -3.3188,15.21302 -0.6686,5.23106 -1.0036,10.29548 -1.0056,15.19324 0,5.29131 0.289,10.62971 0.8671,16.01519 0.565,5.36664 1.5487,10.52898 2.9517,15.487 1.3877,4.94296 3.2333,9.54979 5.5361,13.82051 2.3048,4.28577 5.2113,8.01418 8.7194,11.18521 3.5081,3.15785 7.6864,5.65285 12.5353,7.48505 4.8506,1.82655 10.4489,2.73982 16.7948,2.73982 5.0935,0 9.9424,-0.76921 14.5464,-2.30766 4.6247,-1.54031 8.8587,-3.69827 12.702,-6.47386 3.8414,-2.79066 7.2498,-6.10857 10.2249,-9.95371 2.9751,-3.84139 5.3243,-8.11965 7.0472,-12.83475 l 21.1841,7.8014 c -3.1711,7.58109 -7.372,14.13215 -12.6031,19.65321 -5.2311,5.53611 -11.1646,10.10434 -17.8003,13.70471 -6.6188,3.60036 -13.7273,6.26202 -21.3253,7.98499 -7.5944,1.73992 -15.2808,2.60989 -23.0596,2.60989 -12.5826,0 -24.2508,-2.14384 -35.0047,-6.4315 -10.7671,-4.27072 -20.0636,-10.27195 -27.8896,-18.00367 -7.8389,-7.73361 -13.9625,-16.90868 -18.3708,-27.52522 -4.4252,-10.61465 -6.6377,-22.26684 -6.6377,-34.95661 0,-12.76695 2.1899,-24.48129 6.5699,-35.14302 4.3611,-10.67679 10.4311,-19.85093 18.2099,-27.5224 7.7957,-7.68842 17.0695,-13.65293 27.8218,-17.89351 10.7671,-4.22363 22.5342,-6.33546 35.3012,-6.33546 8.0688,0 15.9465,0.89162 23.6329,2.67485 7.6885,1.77006 14.8269,4.50797 21.4158,8.21378 6.5718,3.69075 12.4752,8.37385 17.7099,14.0493 5.246,5.67359 9.4546,12.44589 12.6257,20.31698 m 77.4943,-67.28639 v 192.5212 H 1591.731 V 698.76858 h 18.7352 z m 32.166,121.32564 c 0,-7.58109 0.6488,-15.45875 1.9461,-23.63299 1.2956,-8.16105 3.1711,-16.32965 5.6265,-24.50578 2.4404,-8.15919 5.392,-16.22796 8.8549,-24.20638 3.4629,-7.97841 7.3515,-15.61128 11.6654,-22.89861 h 35.6006 c -2.3932,7.19884 -4.5286,14.71025 -6.406,22.53424 -1.8755,7.83906 -3.461,15.67153 -4.7566,23.49742 -1.2993,7.824 -2.3068,15.48793 -3.0223,22.99182 -0.7307,7.48881 -1.0959,14.45228 -1.0959,20.89036 0,3.751 0.1667,7.76186 0.5028,12.03257 0.3353,4.27072 0.9377,8.54898 1.8077,12.83475 0.8663,4.27071 2.0938,8.37385 3.6832,12.30938 1.5894,3.93553 3.6259,7.42102 6.1095,10.45648 2.5006,3.02037 5.5511,5.42123 9.1515,7.20259 3.6155,1.77006 7.8712,2.65508 12.767,2.65508 4.8017,0 9.1027,-1.07426 12.9025,-3.22281 3.783,-2.1655 7.1159,-5.00228 9.9989,-8.51036 2.8811,-3.50809 5.3365,-7.51988 7.3665,-12.0354 2.013,-4.51552 3.6671,-9.15247 4.9627,-13.9109 1.2973,-4.75843 2.2576,-9.41894 2.881,-13.98152 0.6271,-4.55882 0.9406,-8.66099 0.9406,-12.30655 v -83.43715 h 48.7093 v 166.44214 h -18.738 l -22.3309,-38.78104 c -2.7906,6.43807 -6.1764,12.2802 -10.1571,17.52632 -3.9959,5.23106 -8.5414,9.72209 -13.6369,13.47309 -5.0785,3.7397 -10.722,6.62357 -16.9303,8.65159 -6.1914,2.01297 -12.8865,3.01944 -20.0854,3.01944 -11.5318,0 -21.5759,-1.87643 -30.1323,-5.62932 -8.5414,-3.73595 -15.6499,-8.92182 -21.3253,-15.55761 -5.6737,-6.63393 -9.8981,-14.53419 -12.6738,-23.70078 -2.7906,-9.18168 -4.1859,-19.24837 -4.1859,-30.20007 M 2060.38,858.87526 c 0,12.09661 -1.8227,23.42962 -5.4683,33.99908 -3.6606,10.56946 -8.9454,19.76619 -15.8542,27.59019 -6.9258,7.84094 -15.3834,14.0173 -25.3729,18.52903 -9.9896,4.51174 -21.3226,6.77044 -33.9991,6.77609 -6.4363,0 -12.5599,-0.96034 -18.3709,-2.88104 -5.8109,-1.92069 -11.1493,-4.63601 -16.0152,-8.14599 -4.8506,-3.50809 -9.1213,-7.71009 -12.8121,-12.60596 -3.7058,-4.89587 -6.6114,-10.37174 -8.7166,-16.42757 l -21.6219,36.17116 h -18.7352 V 714.19061 h 48.7065 v 81.12667 c 5.7657,-7.97652 12.7048,-13.84029 20.8169,-17.59129 8.1327,-3.7378 17.049,-5.60672 26.7485,-5.60672 12.6729,0 24.0058,2.25774 33.9991,6.77326 9.9895,4.51363 18.4471,10.65985 25.3729,18.43865 6.9108,7.77692 12.1955,16.95201 15.8542,27.52522 3.6456,10.56946 5.4683,21.90909 5.4683,34.01886 m -49.4183,0 c 0,-4.22363 -0.2203,-8.71466 -0.6638,-13.47309 -0.4273,-4.7603 -1.1674,-9.49614 -2.2201,-14.20748 -1.0676,-4.70005 -2.5316,-9.21557 -4.3921,-13.54653 -1.8755,-4.31591 -4.2547,-8.13659 -7.1377,-11.46202 -2.881,-3.31037 -6.3431,-5.94943 -10.3858,-7.91721 -4.0298,-1.96778 -8.7816,-2.95165 -14.2555,-2.95165 -5.0015,0 -9.4473,1.03003 -13.3375,3.09006 -3.8886,2.07511 -7.2967,4.84316 -10.2249,8.30417 -2.9299,3.44595 -5.409,7.38147 -7.437,11.80661 -2.0148,4.42324 -3.6474,8.98395 -4.8978,13.68211 -1.2504,4.71324 -2.1571,9.37278 -2.72,13.97869 -0.5799,4.62096 -0.87,8.85306 -0.87,12.69634 0,4.3178 0.2147,8.87849 0.6412,13.68211 0.4256,4.80173 1.1722,9.58369 2.2398,14.34588 1.0544,4.75843 2.5187,9.27299 4.3922,13.54371 1.8735,4.27071 4.2764,8.0688 7.2082,11.39422 2.9283,3.30848 6.4363,5.92401 10.5243,7.8466 4.073,1.92069 8.9002,2.88104 14.4815,2.88104 5.3666,0 10.0949,-0.98295 14.1849,-2.94883 4.0899,-1.96589 7.5754,-4.61249 10.4564,-7.93981 2.8811,-3.31037 5.2602,-7.15364 7.1377,-11.5298 1.8605,-4.363 3.3245,-8.90108 4.3921,-13.61432 1.0544,-4.71324 1.7945,-9.44153 2.2201,-14.18488 0.4426,-4.75843 0.6638,-9.24947 0.6638,-13.4731"
                     id="path1831-3"
                     style="fill:#fe5b33;fill-opacity:1;stroke-width:2.82343;stroke-dasharray:none"
                     sodipodi:nodetypes="cccscsccsccccccsccccccccscccscscscccccccccccscscccccsscsccscccccsccccccccscscccccscscccccccccsscccccccccscccccsccsccssccccc" /><path
                     d="m 785.32259,885.52769 c 0,5.85622 -0.96035,11.33209 -2.88104,16.42758 -1.92069,5.09548 -4.55981,9.7315 -7.91721,13.90807 -3.37067,4.18033 -7.29115,7.90215 -11.76142,11.16544 -4.46843,3.26518 -9.27299,6.00309 -14.41367,8.21378 -5.14067,2.21256 -10.448,3.86774 -15.92197,4.96556 -5.47595,1.11098 -10.85192,1.66648 -16.12817,1.66648 H 594.23621 V 734.36918 h 111.53298 c 4.89579,0 10.03647,0.35779 15.42204,1.07333 5.38542,0.71554 10.64656,1.84536 15.78357,3.38946 5.14068,1.54031 10.03647,3.55328 14.68765,6.03888 4.66982,2.50066 8.75793,5.55117 12.26419,9.15154 3.50809,3.59658 6.2921,7.75245 8.35219,12.46755 2.05994,4.71511 3.08906,10.09965 3.08723,16.15359 0,5.76584 -1.15157,10.99786 -3.45443,15.69602 -2.30299,4.71323 -5.3987,8.9152 -9.28711,12.60595 -3.89039,3.70581 -8.35981,6.97757 -13.40813,9.81531 -5.03334,2.82079 -10.34166,5.29131 -15.9248,7.41161 7.01618,1.92069 13.67448,4.46751 19.9752,7.6404 6.28363,3.1729 11.80464,7.06137 16.56315,11.66539 4.75838,4.60401 8.52449,10.05821 11.29819,16.3626 2.79433,6.29875 4.19163,13.52866 4.19163,21.68971 M 717.299,787.67688 c 0,-11.71247 -3.09571,-20.26142 -9.28712,-25.6469 -6.20835,-5.38548 -15.02475,-8.07821 -26.44906,-8.07821 h -30.12663 v 67.30898 h 25.23451 c 5.18587,0 10.2267,-0.64775 15.12263,-1.94329 4.89579,-1.29553 9.24277,-3.31602 13.04094,-6.06148 3.79803,-2.7304 6.82594,-6.21589 9.08374,-10.45647 2.25583,-4.22553 3.38381,-9.26641 3.38381,-15.12263 m 10.09211,94.26081 c 0,-5.67358 -0.72506,-10.98938 -2.1749,-15.94739 -1.43303,-4.94107 -3.63618,-9.21179 -6.60944,-12.81215 -2.99035,-3.59848 -6.7131,-6.43526 -11.16826,-8.51037 -4.46844,-2.05816 -9.73156,-3.08723 -15.78923,-3.08723 h -40.22156 v 80.12113 h 35.16562 c 5.87506,0 11.30568,-0.96035 16.29199,-2.88104 5.00313,-1.92258 9.32751,-4.61531 12.97315,-8.07821 3.64551,-3.44594 6.48234,-7.62628 8.51037,-12.54099 2.01475,-4.89587 3.02226,-10.31714 3.02226,-16.26375 m 262.8327,-23.65559 c 0,8.64688 -1.15245,16.76841 -3.45728,24.36456 -2.30483,7.59614 -5.49939,14.61231 -9.58369,21.04853 -4.08811,6.43621 -9.01511,12.22464 -14.78086,17.36532 -5.76589,5.14068 -12.08059,9.48765 -18.94424,13.04094 -6.86365,3.55328 -14.21511,6.2912 -22.05407,8.21378 -7.82598,1.92069 -15.87213,2.88104 -24.13859,2.88104 -8.25149,0 -16.2742,-0.96035 -24.06797,-2.88104 -7.77881,-1.92069 -15.10004,-4.65861 -21.96369,-8.21378 -6.87876,-3.55329 -13.20109,-7.90026 -18.96684,-13.04094 -5.75078,-5.14068 -10.66931,-10.92911 -14.75544,-17.36532 -4.08627,-6.43622 -7.28168,-13.47499 -9.58651,-21.11632 -2.30484,-7.64134 -3.4564,-15.74028 -3.45443,-24.29677 0,-8.54143 1.15143,-16.63376 3.45443,-24.27699 2.30285,-7.64322 5.4984,-14.682 9.58651,-21.11632 4.08613,-6.43621 9.00466,-12.22464 14.75544,-17.36532 5.76575,-5.14068 12.08808,-9.48765 18.96684,-13.04094 6.86365,-3.55328 14.18488,-6.2912 21.96369,-8.21378 7.79575,-1.92069 15.81746,-2.88104 24.06514,-2.88104 8.26647,0 16.31361,0.96035 24.14142,2.88104 7.83896,1.92069 15.19042,4.65861 22.05407,8.21378 6.86365,3.55518 13.17835,7.90216 18.94424,13.04094 5.76575,5.13879 10.69275,10.92725 14.78086,17.36532 4.08797,6.43808 7.28253,13.47685 9.58369,21.11632 2.30483,7.64323 3.45728,15.73556 3.45728,24.27699 m -49.57932,0 c 0,-4.60777 -0.25986,-9.48107 -0.77958,-14.61986 -0.53299,-5.14067 -1.42456,-10.18156 -2.67484,-15.12263 -1.25043,-4.95801 -2.95928,-9.71737 -5.12656,-14.27809 -2.15047,-4.56071 -4.81218,-8.54897 -7.985,-11.96478 -3.17112,-3.40076 -6.96816,-6.13868 -11.3914,-8.21379 -4.42522,-2.06003 -9.5659,-3.09005 -15.42203,-3.09005 -5.56634,0 -10.51579,1.06013 -14.84865,3.18044 -4.31591,2.10522 -8.08301,4.91095 -11.30102,8.41715 -3.21815,3.5062 -5.91093,7.56414 -8.0782,12.1738 -2.14864,4.62286 -3.90169,9.40482 -5.25931,14.34588 -1.34265,4.94107 -2.30399,9.93676 -2.88387,14.98705 -0.56491,5.04654 -0.84736,9.77483 -0.84736,14.18488 0,4.42325 0.28245,9.15908 0.84736,14.20748 0.57988,5.04654 1.54023,10.0648 2.88104,15.05484 1.35946,5.00134 3.11449,9.78234 5.26496,14.34306 2.16544,4.56071 4.85723,8.5951 8.07538,12.10318 3.21801,3.50809 6.98412,6.3138 11.2982,8.41716 4.33088,2.12216 9.28146,3.18326 14.85147,3.18326 5.76575,0 10.8594,-1.03003 15.2808,-3.09005 4.42508,-2.07322 8.2467,-4.84128 11.46484,-8.30417 3.21999,-3.44595 5.88156,-7.42667 7.985,-11.94219 2.12025,-4.51552 3.82811,-9.27489 5.12373,-14.27809 1.29732,-4.98626 2.21247,-10.02715 2.74546,-15.12263 0.51972,-5.0936 0.77958,-9.95182 0.77958,-14.57467 m 256.10169,0 c 0,8.64877 -1.1506,16.77123 -3.4516,24.36738 -2.3011,7.59614 -5.4966,14.61231 -9.5865,21.04853 -4.0863,6.43621 -9.0047,12.22464 -14.7554,17.36532 -5.7659,5.14068 -12.0883,9.48765 -18.9668,13.04094 -6.8637,3.55328 -14.2075,6.2912 -22.0315,8.21378 -7.841,1.92069 -15.8947,2.88104 -24.1612,2.88104 -8.2515,0 -16.2666,-0.96035 -24.0454,-2.88104 -7.7957,-1.92069 -15.1246,-4.65861 -21.9863,-8.21378 -6.8618,-3.55518 -13.1765,-7.90216 -18.9442,-13.04094 -5.7677,-5.13879 -10.6947,-10.92725 -14.7809,-17.36532 -4.0862,-6.43808 -7.2817,-13.47685 -9.5865,-21.11632 -2.3048,-7.63947 -3.4564,-15.73839 -3.4544,-24.29677 0,-8.54143 1.1514,-16.63376 3.4544,-24.27699 2.3029,-7.64322 5.4984,-14.682 9.5865,-21.11632 4.0862,-6.43621 9.0132,-12.22464 14.7809,-17.36532 5.7677,-5.14068 12.0824,-9.48765 18.9442,-13.04094 6.8617,-3.55328 14.1906,-6.2912 21.9863,-8.21378 7.7768,-1.92069 15.7921,-2.88104 24.0454,-2.88104 8.2665,0 16.3192,0.96035 24.1584,2.88104 7.8258,1.92069 15.1696,4.65861 22.0314,8.21378 6.8806,3.55518 13.2038,7.90216 18.9697,13.04094 5.7488,5.14068 10.6673,10.92911 14.7554,17.36532 4.088,6.43622 7.2835,13.47499 9.5865,21.11632 2.3029,7.64323 3.4544,15.73556 3.4544,24.27699 m -49.5792,0 c 0,-4.60777 -0.259,-9.48107 -0.7768,-14.61986 -0.533,-5.14067 -1.4255,-10.18156 -2.6776,-15.12263 -1.2505,-4.95801 -2.9508,-9.71737 -5.1012,-14.27809 -2.1656,-4.56071 -4.8348,-8.54897 -8.0076,-11.96478 -3.1729,-3.40076 -6.971,-6.13868 -11.3942,-8.21379 -4.4063,-2.06003 -9.547,-3.09005 -15.422,-3.09005 -5.5664,0 -10.5073,1.06013 -14.8233,3.18044 -4.331,2.10522 -8.1064,4.91095 -11.3264,8.41715 -3.22,3.5062 -5.9128,7.56414 -8.0782,12.1738 -2.1486,4.62286 -3.8942,9.40482 -5.2367,14.34588 -1.3558,4.94107 -2.3161,9.93676 -2.8811,14.98705 -0.58,5.04654 -0.8699,9.77483 -0.8699,14.18488 0,4.42325 0.2899,9.15908 0.8699,14.20748 0.565,5.04654 1.5253,10.0648 2.8811,15.05484 1.3425,5.00134 3.0891,9.78234 5.2395,14.34306 2.1655,4.56071 4.8582,8.5951 8.0782,12.10318 3.22,3.50809 6.9945,6.3138 11.3236,8.41716 4.316,2.12216 9.2579,3.18326 14.8261,3.18326 5.7657,0 10.8594,-1.03003 15.2808,-3.09005 4.4251,-2.07322 8.2467,-4.84128 11.4648,-8.30417 3.218,-3.44595 5.8798,-7.42667 7.985,-11.94219 2.1203,-4.51552 3.8281,-9.27489 5.1238,-14.27809 1.2973,-4.98626 2.2124,-10.02715 2.7454,-15.12263 0.5178,-5.0936 0.7768,-9.95182 0.7768,-14.57467 m 128.9914,27.68622 v 55.91475 h -48.7121 V 714.19061 h 48.7093 v 149.44401 c 7.9785,-5.76583 15.8336,-12.11166 23.5652,-19.03745 7.7336,-6.91074 15.1085,-14.18581 22.1247,-21.82528 7.0012,-7.64134 13.507,-15.45028 19.5176,-23.4268 6.007,-7.97653 11.268,-15.94551 15.7836,-23.90698 h 33.1517 c -6.7261,11.33209 -14.7026,22.64158 -23.9296,33.92847 -9.2286,11.2869 -19.2727,22.07009 -30.1323,32.34955 l 54.6353,100.16412 h -53.7653 l -38.7584,-69.46128 c -7.2139,4.89587 -14.6114,9.41139 -22.1925,13.54653"
                     id="path1831"
                     style="fill:#ffffff;stroke-width:2.82343;stroke-dasharray:none"
                     sodipodi:nodetypes="csccccsccsscccsccccccsccccsccsscccccccsccscccccscsscscccsscsccccscsssccccccccscscccscccscscccccccsccccscsssscscsscscccsscccccccscscccscccscsccccccccccccccccccccccc" /></g></g></g></g></g></g></g></g></svg>
