<?xml version="1.0" encoding="UTF-8" standalone="no"?>
<svg
   xml:space="preserve"
   width="625.58002"
   height="100"
   data-id="lg_GLLUYPPDmhp9qSlz7P"
   data-version="1"
   viewBox="0 0 625.57998 100"
   version="1.1"
   id="svg1845"
   sodipodi:docname="book-club-logo-b.svg"
   inkscape:version="1.2.2 (b0a8486541, 2022-12-01)"
   xmlns:inkscape="http://www.inkscape.org/namespaces/inkscape"
   xmlns:sodipodi="http://sodipodi.sourceforge.net/DTD/sodipodi-0.dtd"
   xmlns="http://www.w3.org/2000/svg"
   xmlns:svg="http://www.w3.org/2000/svg"><defs
     id="defs1849" /><sodipodi:namedview
     id="namedview1847"
     pagecolor="#ffffff"
     bordercolor="#000000"
     borderopacity="0.25"
     inkscape:showpageshadow="2"
     inkscape:pageopacity="0.0"
     inkscape:pagecheckerboard="0"
     inkscape:deskcolor="#d1d1d1"
     showgrid="false"
     inkscape:zoom="0.5"
     inkscape:cx="413"
     inkscape:cy="17"
     inkscape:window-width="1920"
     inkscape:window-height="1011"
     inkscape:window-x="0"
     inkscape:window-y="0"
     inkscape:window-maximized="1"
     inkscape:current-layer="g11872" /><g
     data-padding="20"
     id="g1843"><g
       transform="matrix(0.96416,0,0,0.96416,10,4.498)"
       id="g1839"><g
         id="g9120"
         transform="translate(-27.731397,2.4171318e-4)"><g
           id="g9134"
           transform="matrix(0.25187144,0,0,0.25187144,-125.44065,-38.106079)"><g
             id="g11872"
             transform="matrix(1.7437417,0,0,1.7437683,-421.67027,-98.749846)"><rect
               width="1115.2485"
               height="236.14742"
               x="929.02295"
               y="132.76964"
               fill="none"
               rx="0"
               ry="0"
               id="rect1829"
               style="stroke-width:1.62" /><g
               id="g6903"
               transform="matrix(2,0,0,2,-460.12705,-110.19008)"><path
                 fill="#39cccc"
                 d="m 652.26249,158.15291 q -0.39,0 -0.78,0.06 l -82.125,15.57 -48.18,-11.055 v -16.605 l 48.195,11.04 82.89,-15.765 1.65,-0.465 a 3.45,3.45 0 0 0 2.13,-3.03 c 0.045,-1.635 -1.155,-3.075 -2.895,-3.465 l -51.945,-11.925 q -0.825,-0.195 -1.68,-0.045 l -82.905,15.735 -0.345,0.105 -0.255,0.06 -0.555,0.24 -0.075,0.045 q -0.3,0.15 -0.555,0.375 l -0.15,0.15 -0.33,0.3 -0.15,0.225 a 3,3 0 0 0 -0.495,0.96 l -0.045,0.135 -0.03,0.105 -0.06,0.405 -0.03,0.27 v 23.88 c 0,1.62 1.2,3 2.895,3.405 l 51.945,11.91 q 0.825,0.195 1.68,0.045 l 82.905,-15.735 c 2.07,-0.375 3.405,-2.22 3,-4.125 a 3.6,3.6 0 0 0 -2.055,-2.43 c 0,0 -0.855,-0.45 -1.65,-0.375"
                 id="path1833"
                 style="fill:#fe5b33;fill-opacity:1" /><path
                 fill="#39cccc"
                 d="m 653.91249,179.21291 a 3.45,3.45 0 0 0 2.13,-3 3.6,3.6 0 0 0 -2.895,-3.48 l -83.52,15.255 a 4.5,4.5 0 0 0 -1.665,-0.045 l -51.345,-11.43 -0.345,0.105 -0.255,0.06 -0.555,0.24 -0.075,0.045 q -0.3,0.15 -0.555,0.375 -0.09,0.06 -0.15,0.135 -0.165,0.15 -0.315,0.33 l -0.15,0.195 a 3,3 0 0 0 -0.51,0.975 l -0.045,0.135 -0.03,0.09 -0.06,0.42 -0.03,0.27 v 23.88 c 0,1.605 1.2,3 2.895,3.405 l 17.505,3.99 0.03,-7.26 -12.795,-2.895 v -16.575 l 48.3,10.65 82.785,-15.39 c 0,0 1.2,-0.225 1.65,-0.465 m -1.65,17.235 q -0.39,0 -0.78,0.06 l -82.02,15.255 -9.765,-1.905 v 7.2 l 8.67,1.995 q 0.825,0.18 1.68,0.03 l 82.905,-15.72 c 2.07,-0.375 3.405,-2.22 3,-4.125 a 3.6,3.6 0 0 0 -2.055,-2.43 c 0,0 -0.855,-0.45 -1.65,-0.39"
                 id="path1835"
                 style="fill:#25262d;fill-opacity:0.81960785" /><path
                 fill="#39cccc"
                 d="m 538.83249,234.78791 7.665,-4.38 7.665,8.58 v -36.375 l -15.33,-3.48 z"
                 id="path1837"
                 style="fill:#25262d;fill-opacity:0.81960785" /></g><path
               d="m 1658.1401,227.82637 -14.904,5.912 c -2.3866,-7.47334 -6.3666,-13.21866 -11.94,-17.236 -5.584,-4.01734 -12.2854,-6.026 -20.104,-6.026 -4.2134,0 -7.972,0.664 -11.276,1.992 -3.2934,1.328 -6.182,3.148 -8.666,5.46 -2.484,2.312 -4.5954,5.00066 -6.334,8.066 -1.728,3.05734 -3.1374,6.31934 -4.228,9.786 -1.0934,3.47734 -1.8766,7.068 -2.35,10.772 -0.4734,3.704 -0.7106,7.29 -0.712,10.758 0,3.74666 0.2046,7.52666 0.614,11.34 0.4,3.8 1.0966,7.45534 2.09,10.966 0.9826,3.5 2.2894,6.762 3.92,9.786 1.632,3.03466 3.69,5.67466 6.174,7.92 2.484,2.236 5.4426,4.00266 8.876,5.3 3.4346,1.29334 7.3986,1.94 11.892,1.94 3.6066,0 7.04,-0.54466 10.3,-1.634 3.2746,-1.09066 6.2726,-2.61866 8.994,-4.584 2.72,-1.976 5.1334,-4.32534 7.24,-7.048 2.1066,-2.72 3.77,-5.74934 4.99,-9.088 l 15,5.524 c -2.2454,5.368 -5.22,10.00666 -8.924,13.916 -3.704,3.92 -7.9054,7.15466 -12.604,9.704 -4.6866,2.54934 -9.72,4.434 -15.1,5.654 -5.3774,1.232 -10.82,1.848 -16.328,1.848 -8.9094,0 -17.1714,-1.518 -24.786,-4.554 -7.624,-3.024 -14.2066,-7.27334 -19.748,-12.748 -5.5506,-5.476 -9.8866,-11.97266 -13.008,-19.49 -3.1334,-7.516 -4.7,-15.76666 -4.7,-24.752 0,-9.04 1.5506,-17.33466 4.652,-24.884 3.088,-7.56 7.386,-14.056 12.894,-19.488 5.52,-5.444 12.0866,-9.66734 19.7,-12.67 7.624,-2.99066 15.956,-4.486 24.996,-4.486 5.7134,0 11.2914,0.63134 16.734,1.894 5.444,1.25334 10.4986,3.192 15.164,5.816 4.6534,2.61334 8.8334,5.92934 12.54,9.948 3.7146,4.01734 6.6946,8.81266 8.94,14.386 m 54.872,-47.644 v 136.32 h -34.49 v -172.14 h 13.266 z m 22.776,85.908 c 0,-5.368 0.4594,-10.946 1.378,-16.734 0.9174,-5.77866 2.2454,-11.56266 3.984,-17.352 1.728,-5.77734 3.818,-11.49066 6.27,-17.14 2.452,-5.64934 5.2054,-11.054 8.26,-16.214 h 25.208 c -1.6946,5.09734 -3.2066,10.416 -4.536,15.956 -1.328,5.55066 -2.4506,11.09666 -3.368,16.638 -0.92,5.54 -1.6334,10.96666 -2.14,16.28 -0.5174,5.30266 -0.776,10.23334 -0.776,14.792 0,2.656 0.118,5.496 0.356,8.52 0.2374,3.024 0.664,6.05334 1.28,9.088 0.6134,3.024 1.4826,5.92934 2.608,8.716 1.1254,2.78666 2.5674,5.25466 4.326,7.404 1.7706,2.13866 3.9306,3.83866 6.48,5.1 2.56,1.25334 5.5734,1.88 9.04,1.88 3.4,0 6.4454,-0.76066 9.136,-2.282 2.6786,-1.53334 5.0386,-3.542 7.08,-6.026 2.04,-2.484 3.7786,-5.32466 5.216,-8.522 1.4254,-3.19734 2.5966,-6.48066 3.514,-9.85 0.9186,-3.36934 1.5986,-6.66934 2.04,-9.9 0.444,-3.228 0.666,-6.13266 0.666,-8.714 v -59.08 h 34.49 v 117.854 h -13.268 l -15.812,-27.46 c -1.976,4.55866 -4.3734,8.69534 -7.192,12.41 -2.8294,3.704 -6.048,6.884 -9.656,9.54 -3.596,2.648 -7.592,4.69 -11.988,6.126 -4.384,1.42534 -9.1246,2.138 -14.222,2.138 -8.1654,0 -15.2774,-1.32866 -21.336,-3.986 -6.048,-2.64534 -11.0814,-6.31734 -15.1,-11.016 -4.0174,-4.69734 -7.0086,-10.29134 -8.974,-16.782 -1.976,-6.50134 -2.964,-13.62934 -2.964,-21.384 m 274.574,-8.36 c 0,8.56534 -1.2906,16.59 -3.872,24.074 -2.592,7.484 -6.334,13.996 -11.226,19.536 -4.904,5.552 -10.8926,9.92534 -17.966,13.12 -7.0734,3.19466 -15.098,4.794 -24.074,4.798 -4.5574,0 -8.8934,-0.68 -13.008,-2.04 -4.1146,-1.36 -7.8946,-3.28266 -11.34,-5.768 -3.4346,-2.484 -6.4586,-5.45934 -9.072,-8.926 -2.624,-3.46666 -4.6814,-7.344 -6.172,-11.632 l -15.31,25.612 h -13.266 v -161.222 h 34.488 v 57.444 c 4.0826,-5.648 8.996,-9.8 14.74,-12.456 5.7586,-2.64666 12.072,-3.97 18.94,-3.97 8.9734,0 16.998,1.59866 24.074,4.796 7.0734,3.196 13.062,7.548 17.966,13.056 4.8934,5.50666 8.6354,12.00334 11.226,19.49 2.5814,7.484 3.872,15.51334 3.872,24.088 m -34.992,0 c 0,-2.99066 -0.156,-6.17066 -0.47,-9.54 -0.3026,-3.37066 -0.8266,-6.724 -1.572,-10.06 -0.756,-3.328 -1.7926,-6.52534 -3.11,-9.592 -1.328,-3.056 -3.0126,-5.76134 -5.054,-8.116 -2.04,-2.344 -4.4914,-4.21266 -7.354,-5.606 -2.8534,-1.39334 -6.218,-2.09 -10.094,-2.09 -3.5414,0 -6.6894,0.72934 -9.444,2.188 -2.7534,1.46934 -5.1666,3.42934 -7.24,5.88 -2.0746,2.44 -3.83,5.22666 -5.266,8.36 -1.4266,3.132 -2.5826,6.36134 -3.468,9.688 -0.8854,3.33734 -1.5274,6.63666 -1.926,9.898 -0.4106,3.272 -0.616,6.26866 -0.616,8.99 0,3.05734 0.152,6.28666 0.454,9.688 0.3014,3.4 0.83,6.786 1.586,10.158 0.7466,3.36934 1.7834,6.566 3.11,9.59 1.3266,3.024 3.028,5.71334 5.104,8.068 2.0734,2.34266 4.5574,4.19466 7.452,5.556 2.884,1.36 6.302,2.04 10.254,2.04 3.8,0 7.148,-0.696 10.044,-2.088 2.896,-1.392 5.364,-3.266 7.404,-5.622 2.04,-2.344 3.7246,-5.06534 5.054,-8.164 1.3174,-3.08934 2.354,-6.30266 3.11,-9.64 0.7466,-3.33734 1.2706,-6.68534 1.572,-10.044 0.3134,-3.36934 0.47,-6.54934 0.47,-9.54"
               id="path1831-3"
               style="fill:#24262d;fill-opacity:1;stroke-width:1.99921;stroke-dasharray:none"
               sodipodi:nodetypes="cccscsccsccccccsccccccccscccscscscccccccccccscscccccsscsccscccccsccccccccscscccccscscccccccccsscccccccccscccccsccsccssccccc" /><path
               d="m 1107.5201,276.60237 c 0,4.14666 -0.68,8.024 -2.04,11.632 -1.36,3.608 -3.2287,6.89066 -5.606,9.848 -2.3867,2.96 -5.1627,5.59534 -8.328,7.906 -3.164,2.312 -6.566,4.25066 -10.206,5.816 -3.64,1.56666 -7.398,2.73866 -11.274,3.516 -3.8774,0.78666 -7.684,1.18 -11.42,1.18 h -86.43004 v -146.93 h 78.97404 c 3.4666,0 7.1066,0.25334 10.92,0.76 3.8133,0.50666 7.5386,1.30666 11.176,2.4 3.64,1.09066 7.1066,2.516 10.4,4.276 3.3066,1.77066 6.2013,3.93066 8.684,6.48 2.484,2.54666 4.4553,5.48934 5.914,8.828 1.4586,3.33866 2.1873,7.15134 2.186,11.438 0,4.08266 -0.8154,7.78734 -2.446,11.114 -1.6307,3.33734 -3.8227,6.31266 -6.576,8.926 -2.7547,2.624 -5.9194,4.94066 -9.494,6.95 -3.564,1.99734 -7.3227,3.74666 -11.276,5.248 4.968,1.36 9.6826,3.16334 14.144,5.41 4.4493,2.24666 8.3586,5 11.728,8.26 3.3693,3.26 6.036,7.122 8,11.586 1.9786,4.46 2.968,9.57934 2.968,15.358 m -48.164,-69.288 c 0,-8.29334 -2.192,-14.34666 -6.576,-18.16 -4.396,-3.81334 -10.6387,-5.72 -18.728,-5.72 h -21.332 v 47.66 h 17.868 c 3.672,0 7.2413,-0.45866 10.708,-1.376 3.4666,-0.91734 6.5446,-2.348 9.234,-4.292 2.6893,-1.93334 4.8333,-4.40134 6.432,-7.404 1.5973,-2.992 2.396,-6.56134 2.396,-10.708 m 7.146,66.744 c 0,-4.01734 -0.5134,-7.78134 -1.54,-11.292 -1.0147,-3.49866 -2.5747,-6.52266 -4.68,-9.072 -2.1174,-2.548 -4.7534,-4.55666 -7.908,-6.026 -3.164,-1.45734 -6.8907,-2.186 -11.18,-2.186 h -28.48 v 56.732 h 24.9 c 4.16,0 8.0053,-0.68 11.536,-2.04 3.5426,-1.36134 6.6046,-3.268 9.186,-5.72 2.5813,-2.44 4.59,-5.4 6.026,-8.88 1.4266,-3.46666 2.14,-7.30534 2.14,-11.516 m 186.106,-16.75 c 0,6.12266 -0.816,11.87334 -2.448,17.252 -1.632,5.37866 -3.894,10.34666 -6.786,14.904 -2.8947,4.55734 -6.3834,8.656 -10.466,12.296 -4.0827,3.64 -8.554,6.718 -13.414,9.234 -4.86,2.516 -10.0654,4.45466 -15.616,5.816 -5.5414,1.36 -11.2387,2.04 -17.092,2.04 -5.8427,0 -11.5234,-0.68 -17.042,-2.04 -5.508,-1.36 -10.692,-3.29866 -15.552,-5.816 -4.8707,-2.516 -9.3474,-5.594 -13.43,-9.234 -4.072,-3.64 -7.5547,-7.73866 -10.448,-12.296 -2.8934,-4.55734 -5.156,-9.54134 -6.788,-14.952 -1.632,-5.41066 -2.4474,-11.14534 -2.446,-17.204 0,-6.048 0.8153,-11.778 2.446,-17.19 1.6306,-5.412 3.8933,-10.396 6.788,-14.952 2.8933,-4.55734 6.376,-8.656 10.448,-12.296 4.0826,-3.64 8.5593,-6.718 13.43,-9.234 4.86,-2.516 10.044,-4.45466 15.552,-5.816 5.52,-1.36 11.2,-2.04 17.04,-2.04 5.8533,0 11.5513,0.68 17.094,2.04 5.5506,1.36 10.756,3.29866 15.616,5.816 4.86,2.51734 9.3313,5.59534 13.414,9.234 4.0826,3.63866 7.5713,7.73734 10.466,12.296 2.8946,4.55866 5.1566,9.54266 6.786,14.952 1.632,5.412 2.448,11.142 2.448,17.19 m -35.106,0 c 0,-3.26266 -0.184,-6.71334 -0.552,-10.352 -0.3774,-3.64 -1.0087,-7.20934 -1.894,-10.708 -0.8854,-3.51066 -2.0954,-6.88066 -3.63,-10.11 -1.5227,-3.22934 -3.4074,-6.05334 -5.654,-8.472 -2.2454,-2.408 -4.934,-4.34666 -8.066,-5.816 -3.1334,-1.45866 -6.7734,-2.188 -10.92,-2.188 -3.9414,0 -7.446,0.75066 -10.514,2.252 -3.056,1.49066 -5.7234,3.47734 -8.002,5.96 -2.2787,2.48266 -4.1854,5.356 -5.72,8.62 -1.5214,3.27334 -2.7627,6.65934 -3.724,10.158 -0.9507,3.49866 -1.6314,7.036 -2.042,10.612 -0.4,3.57334 -0.6,6.92134 -0.6,10.044 0,3.132 0.2,6.48534 0.6,10.06 0.4106,3.57334 1.0906,7.12666 2.04,10.66 0.9626,3.54134 2.2053,6.92666 3.728,10.156 1.5333,3.22934 3.4393,6.086 5.718,8.57 2.2786,2.484 4.9453,4.47066 8,5.96 3.0666,1.50266 6.572,2.254 10.516,2.254 4.0826,0 7.6893,-0.72934 10.82,-2.188 3.1333,-1.468 5.8393,-3.428 8.118,-5.88 2.28,-2.44 4.1646,-5.25866 5.654,-8.456 1.5013,-3.19734 2.7106,-6.56734 3.628,-10.11 0.9186,-3.53066 1.5666,-7.1 1.944,-10.708 0.368,-3.60666 0.552,-7.04666 0.552,-10.32 m 181.34,0 c 0,6.124 -0.8147,11.87534 -2.444,17.254 -1.6294,5.37866 -3.892,10.34666 -6.788,14.904 -2.8934,4.55734 -6.376,8.656 -10.448,12.296 -4.0827,3.64 -8.5594,6.718 -13.43,9.234 -4.86,2.516 -10.06,4.45466 -15.6,5.816 -5.552,1.36 -11.2547,2.04 -17.108,2.04 -5.8427,0 -11.518,-0.68 -17.026,-2.04 -5.52,-1.36 -10.7094,-3.29866 -15.568,-5.816 -4.8587,-2.51734 -9.33,-5.59534 -13.414,-9.234 -4.084,-3.63866 -7.5727,-7.73734 -10.466,-12.296 -2.8934,-4.55866 -5.156,-9.54266 -6.788,-14.952 -1.632,-5.40934 -2.4474,-11.144 -2.446,-17.204 0,-6.048 0.8153,-11.778 2.446,-17.19 1.6306,-5.412 3.8933,-10.396 6.788,-14.952 2.8933,-4.55734 6.382,-8.656 10.466,-12.296 4.084,-3.64 8.5553,-6.718 13.414,-9.234 4.8586,-2.516 10.048,-4.45466 15.568,-5.816 5.5066,-1.36 11.182,-2.04 17.026,-2.04 5.8533,0 11.5553,0.68 17.106,2.04 5.5413,1.36 10.7413,3.29866 15.6,5.816 4.872,2.51734 9.3493,5.59534 13.432,9.234 4.0706,3.64 7.5533,7.73866 10.448,12.296 2.8946,4.55734 5.1573,9.54134 6.788,14.952 1.6306,5.412 2.446,11.142 2.446,17.19 m -35.106,0 c 0,-3.26266 -0.1834,-6.71334 -0.55,-10.352 -0.3774,-3.64 -1.0094,-7.20934 -1.896,-10.708 -0.8854,-3.51066 -2.0894,-6.88066 -3.612,-10.11 -1.5334,-3.22934 -3.4234,-6.05334 -5.67,-8.472 -2.2467,-2.408 -4.936,-4.34666 -8.068,-5.816 -3.12,-1.45866 -6.76,-2.188 -10.92,-2.188 -3.9414,0 -7.44,0.75066 -10.496,2.252 -3.0667,1.49066 -5.74,3.47734 -8.02,5.96 -2.28,2.48266 -4.1867,5.356 -5.72,8.62 -1.5214,3.27334 -2.7574,6.65934 -3.708,10.158 -0.96,3.49866 -1.64,7.036 -2.04,10.612 -0.4107,3.57334 -0.616,6.92134 -0.616,10.044 0,3.132 0.2053,6.48534 0.616,10.06 0.4,3.57334 1.08,7.12666 2.04,10.66 0.9506,3.54134 2.1873,6.92666 3.71,10.156 1.5333,3.22934 3.44,6.086 5.72,8.57 2.28,2.484 4.9526,4.47066 8.018,5.96 3.056,1.50266 6.5553,2.254 10.498,2.254 4.0826,0 7.6893,-0.72934 10.82,-2.188 3.1333,-1.468 5.8393,-3.428 8.118,-5.88 2.2786,-2.44 4.1633,-5.25866 5.654,-8.456 1.5013,-3.19734 2.7106,-6.56734 3.628,-10.11 0.9186,-3.53066 1.5666,-7.1 1.944,-10.708 0.3666,-3.60666 0.55,-7.04666 0.55,-10.32 m 91.336,19.604 v 39.592 h -34.492 v -161.222 h 34.49 v 105.818 c 5.6494,-4.08266 11.2114,-8.576 16.686,-13.48 5.476,-4.89334 10.698,-10.04466 15.666,-15.454 4.9574,-5.41066 9.564,-10.94 13.82,-16.588 4.2534,-5.648 7.9786,-11.29066 11.176,-16.928 h 23.474 c -4.7626,8.024 -10.4106,16.032 -16.944,24.024 -6.5346,7.992 -13.6466,15.62734 -21.336,22.906 l 38.686,70.924 h -38.07 l -27.444,-49.184 c -5.108,3.46666 -10.346,6.664 -15.714,9.592"
               id="path1831"
               style="fill:#fe5b33;stroke-width:1.99921;stroke-dasharray:none;fill-opacity:1"
               sodipodi:nodetypes="csccccsccsscccsccccccsccccsccsscccccccsccscccccscsscscccsscsccccscsssccccccccscscccscccscscccccccsccccscsssscscsscscccsscccccccscscccscccscsccccccccccccccccccccccc" /></g></g></g></g></g></svg>
